<svg xmlns="http://www.w3.org/2000/svg" viewBox="0 0 24 24">
<path d="M12,2A10,10,0,1,0,22,12A10,10,0,1,0,12,22A10,10,0,1,0,2,12A10,10,0,1,0,12,2M18.61,12.42L16.97,10.78L13.22,14.49L11.58,12.85L14.26,10L18.61,12.42M19.69,10.06L17,5.11L14.31,10.06M8.31,10.06L5.69,5.11L8.31,10.06M15.6,4A2,2,0,1,1,17.6,6A2,2,0,1,1,15.6,8M12,10A2,2,0,1,1,10,12A2,2,0,1,1,12,10M13.22,14.49A2,2,0,1,1,11.49,12.78L13.22,10.78M8.31,10.06A2,2,0,1,1,6.31,12.06L8.31,14.06M16.97,10.78A2,2,0,1,1,15.18,12.78L16.97,14.49M11.58,12.85A2,2,0,1,1,9.75,10L11.58,7.15M19.69,10.06A2,2,0,1,1,17.89,12.06L19.69,14.06M15.6,4A3,3,0,1,0,18.6,7A3,3,0,1,0,15.6,10Z" />
</svg>