<svg xmlns="http://www.w3.org/2000/svg" viewBox="0 0 100 100" width="100" height="100">
  <path fill="#E23636" d="M30.6,82.9c1.8-0.5,3.4-1.6,4.5-3.2l16.7-25.7c0.6-0.9,1-2,1-3.3V17.9c0-1.7-1.3-3-3-3H32c-1.7,0-3,1.3-3,3v31.9c0,0.3,0.1,0.6,0.2,0.8l17.4,26.8C48.7,81.6,49.6,82,50.6,82c1.1,0,2.2-0.4,3-1.2l16.7-25.7c1.8-2.8,0.6-6.6-2.2-8.4c-2.8-1.8-6.6-0.6-8.4,2.2l-12.6,19.4v-42.6c0-1.7-1.3-3-3-3s-3,1.3-3,3v42.6l-12.6-19.4c-1.8-2.8-5.5-4-8.4-2.2c-2.8,1.8-4,5.5-2.2,8.4l16.7,25.7C28.4,82.5,29.5,83,30.6,82.9z"/>
</svg>
